<?xml version="1.0" encoding="UTF-8" standalone="no"?>
<!DOCTYPE svg PUBLIC "-//W3C//DTD SVG 1.1//EN" "http://www.w3.org/Graphics/SVG/1.1/DTD/svg11.dtd">
<!-- 由 Microsoft Visio, SVG Export 生成 pyli.svg 页-1 -->
<svg xmlns="http://www.w3.org/2000/svg" xmlns:xlink="http://www.w3.org/1999/xlink" xmlns:ev="http://www.w3.org/2001/xml-events"
		xmlns:v="http://schemas.microsoft.com/visio/2003/SVGExtensions/" width="13.8585in" height="4.49692in"
		viewBox="0 0 997.816 323.778" xml:space="preserve" color-interpolation-filters="sRGB" class="st5">
	<v:documentProperties v:langID="2052" v:metric="true" v:viewMarkup="false"/>

	<style type="text/css">
	<![CDATA[
		.st1 {fill:#2f5597;stroke:none;stroke-linecap:round;stroke-linejoin:round;stroke-width:0.75}
		.st2 {fill:#8faadc;stroke:none;stroke-linecap:round;stroke-linejoin:round;stroke-width:0.75}
		.st3 {fill:#b4c7e7;stroke:none;stroke-linecap:round;stroke-linejoin:round;stroke-width:0.75}
		.st4 {fill:#000000;stroke:none;stroke-linecap:round;stroke-linejoin:round;stroke-width:0.75}
		.st5 {fill:none;fill-rule:evenodd;font-size:12px;overflow:visible;stroke-linecap:square;stroke-miterlimit:3}
	]]>
	</style>

	<g v:mID="0" v:index="1" v:groupContext="foregroundPage">
		<title>页-1</title>
		<v:pageProperties v:drawingScale="0.0393701" v:pageScale="0.0393701" v:drawingUnits="24" v:shadowOffsetX="8.50394"
				v:shadowOffsetY="-8.50394"/>
		<g id="shape33-1" v:mID="33" v:groupContext="shape" transform="translate(14.9089,-12.6145)">
			<title>工作表.33</title>
			<path d="M219.6 209.41 L256.39 246.2 C270.67 260.48 270.67 283.62 256.39 297.92 C247.77 306.53 239.16 315.15 230.53 323.78
						 L167.88 261.13 L219.6 209.41 ZM36.57 26.35 L191.64 181.43 L139.92 233.15 L10.71 103.93 C-3.57 89.65 -3.57
						 66.51 10.71 52.21 L36.57 26.35 Z" class="st1"/>
		</g>
		<g id="shape34-3" v:mID="34" v:groupContext="shape" transform="translate(229.828,-5.84336)">
			<title>工作表.34</title>
			<path d="M173.13 202.58 L62.43 313.29 C48.15 327.57 24.99 327.57 10.71 313.29 C-3.57 299.01 -3.57 275.85 10.71 261.57
						 L121.42 150.86 C135.69 136.58 158.84 136.58 173.13 150.86 C187.41 165.14 187.41 188.3 173.13 202.58 Z"
					class="st1"/>
		</g>
		<g id="shape35-5" v:mID="35" v:groupContext="shape" transform="translate(236.922,-123.994)">
			<title>工作表.35</title>
			<path d="M62.43 150.87 L173.13 261.57 C187.41 275.85 187.41 299.01 173.13 313.29 C158.85 327.57 135.69 327.57 121.42
						 313.29 L10.71 202.59 C-3.57 188.3 -3.57 165.15 10.71 150.87 C24.99 136.58 48.15 136.58 62.43 150.87 Z"
					class="st2"/>
		</g>
		<g id="shape36-7" v:mID="36" v:groupContext="shape">
			<title>工作表.36</title>
			<path d="M323.77 51.72 L51.72 323.78 L0 272.06 L272.05 0 L323.77 51.72 L323.77 51.72 Z" class="st3"/>
		</g>
		<g id="shape37-9" v:mID="37" v:groupContext="shape" transform="translate(537.59,-68.8775)">
			<title>工作表.37</title>
			<path d="M40.02 144.92 C42.9 144.92 45.96 144.92 49.32 144.8 C68.21 144.8 83.33 148.28 94.79 155.3 C106.25 162.26 111.95
						 173.18 111.95 188 C111.95 206.96 104.63 221.66 90.05 232.16 C75.47 242.66 56.88 247.88 34.14 247.88 C26.04
						 247.88 20.16 247.82 16.56 247.64 L13.14 247.64 C13.14 263.54 13.2 277.46 13.38 289.4 C13.56 301.28 14.1
						 312.74 14.88 323.78 L0 323.78 C1.92 288.56 2.88 257.3 2.88 230 C2.88 201.2 2.1 173.06 0.54 145.64 L17.1
						 145.64 C21.9 145.64 27.18 145.52 32.82 145.22 L40.02 144.92 ZM100.19 190.76 C100.19 177.98 95.93 168.8 87.47
						 163.28 C79.01 157.7 65.52 154.94 47.04 154.94 C32.1 154.94 20.58 155.18 12.54 155.72 C12.96 163.94 13.14
						 191.3 13.14 237.74 C15.78 237.98 21.78 238.04 31.14 238.04 C53.22 238.04 70.25 233.9 82.19 225.62 C94.19
						 217.28 100.19 205.7 100.19 190.76 ZM205.18 267.68 C205.18 285.2 205.54 303.86 206.26 323.78 L192.05 323.78
						 L192.17 320.48 C193.19 292.88 193.67 275.18 193.67 267.44 C193.67 252.5 188.21 236.3 177.29 218.9 C166.37
						 201.5 155.51 185.36 144.71 170.42 C133.91 155.54 128.51 147.26 128.51 145.64 L143.51 145.64 C143.51 147.98
						 152.39 162.02 170.03 187.58 C187.73 213.2 197.81 233.78 200.39 249.26 L201.46 249.26 C201.64 242.9 204.34
						 234.62 209.62 224.42 C214.84 214.28 221.26 203.6 228.88 192.44 C236.5 181.28 243.52 170.96 250 161.42 C256.48
						 151.88 259.72 146.66 259.72 145.64 L273.22 145.64 C273.22 148.34 266.38 158.96 252.58 177.44 C238.84 195.86
						 227.5 212.42 218.56 227.12 C209.62 241.76 205.18 255.32 205.18 267.68 ZM320.38 268.94 L320.56 296.66 C320.56
						 304.64 320.5 310.34 320.38 313.88 C353.91 313.88 384.03 313.46 410.61 312.56 L410.07 323.78 L308.38 323.78
						 C309.1 296.42 309.46 265.16 309.46 230 C309.46 213.5 309.4 198.2 309.34 184.1 C309.22 170.06 308.92 157.22
						 308.38 145.64 L322.48 145.64 C320.92 166.16 320.14 194.24 320.14 230 C320.14 240.08 320.2 253.1 320.38 268.94
						 ZM445.89 323.78 C447.45 283.22 448.23 251.96 448.23 230 C448.23 204.56 447.45 176.42 445.89 145.64 L460.23
						 145.64 C459.21 167.3 458.73 195.32 458.73 229.7 C458.73 260.24 459.21 291.56 460.23 323.78 L445.89 323.78
						 Z" class="st4"/>
		</g>
	</g>
</svg>
