<svg width="563" height="433" xmlns="http://www.w3.org/2000/svg" xmlns:xlink="http://www.w3.org/1999/xlink" overflow="hidden"><defs><clipPath id="clip0"><rect x="44" y="143" width="563" height="433"/></clipPath></defs><g clip-path="url(#clip0)" transform="translate(-44 -143)"><path d="M357.538 405.787 406.593 454.842C425.636 473.885 425.636 504.759 406.593 523.802 395.099 535.295 383.606 546.788 372.113 558.281L288.578 474.746ZM113.47 161.719 320.25 368.499 251.291 437.459 78.9898 265.158C59.947 246.116 59.947 215.241 78.9898 196.198Z" fill="#2F5597" fill-rule="evenodd"/><path d="M582.142 405.713 434.525 553.33C415.483 572.373 384.608 572.373 365.566 553.33L365.566 553.33C346.523 534.288 346.523 503.413 365.565 484.371L513.182 336.754C532.225 317.711 563.099 317.711 582.142 336.754L582.142 336.754C601.185 355.796 601.185 386.671 582.142 405.713Z" fill="#2F5597" fill-rule="evenodd"/><path d="M443.99 179.221 591.607 326.838C610.65 345.881 610.65 376.755 591.607 395.798L591.607 395.798C572.564 414.84 541.69 414.84 522.647 395.798L375.03 248.181C355.988 229.138 355.988 198.264 375.03 179.221L375.03 179.221C394.073 160.178 424.948 160.178 443.99 179.221Z" fill="#8FAADC" fill-rule="evenodd"/><path d="M476.558 212.349 113.793 575.114 44.833 506.154 407.598 143.389Z" fill="#B4C7E7" fill-rule="evenodd"/></g></svg>