<?xml version="1.0" encoding="UTF-8" standalone="no"?>
<!DOCTYPE svg PUBLIC "-//W3C//DTD SVG 1.1//EN" "http://www.w3.org/Graphics/SVG/1.1/DTD/svg11.dtd">
<!-- 由 Microsoft Visio, SVG Export 生成 pyli.svg Page-1 -->
<svg xmlns="http://www.w3.org/2000/svg" xmlns:xlink="http://www.w3.org/1999/xlink" xmlns:ev="http://www.w3.org/2001/xml-events"
		xmlns:v="http://schemas.microsoft.com/visio/2003/SVGExtensions/" width="23.8031in" height="11.6929in"
		viewBox="0 0 1713.83 841.89" xml:space="preserve" color-interpolation-filters="sRGB" class="st6">
	<v:documentProperties v:langID="2052" v:metric="true" v:viewMarkup="false">
		<v:userDefs>
			<v:ud v:nameU="msvNoAutoConnect" v:val="VT0(1):26"/>
		</v:userDefs>
	</v:documentProperties>

	<style type="text/css">
	<![CDATA[
		.st1 {fill:#2f5597;stroke:none;stroke-linecap:round;stroke-linejoin:round;stroke-width:0.75}
		.st2 {fill:#8faadc;stroke:none;stroke-linecap:round;stroke-linejoin:round;stroke-width:0.75}
		.st3 {fill:#b4c7e7;stroke:none;stroke-linecap:round;stroke-linejoin:round;stroke-width:0.75}
		.st4 {fill:#000000;stroke:none;stroke-linecap:round;stroke-linejoin:round;stroke-width:0.75}
		.st5 {fill:#ffffff;stroke:none;stroke-linecap:round;stroke-linejoin:round;stroke-width:0.75}
		.st6 {fill:none;fill-rule:evenodd;font-size:12px;overflow:visible;stroke-linecap:square;stroke-miterlimit:3}
	]]>
	</style>

	<g v:mID="0" v:index="1" v:groupContext="foregroundPage">
		<title>页-1</title>
		<v:pageProperties v:drawingScale="0.0393701" v:pageScale="0.0393701" v:drawingUnits="24" v:shadowOffsetX="8.50394"
				v:shadowOffsetY="-8.50394"/>
		<g id="shape3-1" v:mID="3" v:groupContext="shape" transform="translate(186.885,-283.129)">
			<title>工作表.3</title>
			<path d="M36.57 544.47 L256.39 764.31 C270.67 778.59 270.67 801.74 256.39 816.03 L230.53 841.89 L10.71 622.04 C-3.57
						 607.76 -3.57 584.62 10.71 570.32 L36.57 544.47 Z" class="st1"/>
		</g>
		<g id="shape4-3" v:mID="4" v:groupContext="shape" transform="translate(401.804,-276.358)">
			<title>工作表.4</title>
			<path d="M173.13 720.69 L62.43 831.4 C48.15 845.68 24.99 845.68 10.71 831.4 C-3.57 817.12 -3.57 793.96 10.71 779.68 L121.42
						 668.97 C135.69 654.69 158.84 654.69 173.13 668.97 C187.41 683.25 187.41 706.41 173.13 720.69 Z"
					class="st1"/>
		</g>
		<g id="shape5-5" v:mID="5" v:groupContext="shape" transform="translate(408.899,-394.509)">
			<title>工作表.5</title>
			<path d="M62.43 668.98 L173.13 779.68 C187.41 793.96 187.41 817.12 173.13 831.4 C158.85 845.68 135.69 845.68 121.42 831.4
						 L10.71 720.7 C-3.57 706.41 -3.57 683.26 10.71 668.98 C24.99 654.69 48.15 654.69 62.43 668.98 Z"
					class="st2"/>
		</g>
		<g id="shape6-7" v:mID="6" v:groupContext="shape" transform="translate(171.976,-270.515)">
			<title>工作表.6</title>
			<path d="M323.77 569.83 L51.72 841.89 L0 790.17 L272.05 518.11 L323.77 569.83 L323.77 569.83 Z" class="st3"/>
		</g>
		<g id="shape7-9" v:mID="7" v:groupContext="shape" transform="translate(725.165,-336.392)">
			<title>工作表.7</title>
			<path d="M0 638.44 L170.87 638.44 C189.41 638.44 202.9 642.4 211.48 650.2 C220.06 658.06 224.32 672.34 224.32 693.16
						 L224.32 701.49 C224.32 724.71 219.76 740.55 210.64 748.89 C201.52 757.17 185.09 761.37 161.33 761.37 L27.48
						 761.37 L27.48 841.89 L0 841.89 L0 638.44 ZM27.48 660.88 L27.48 738.93 L161.21 738.93 C184.97 738.93 196.85
						 729.27 196.85 709.95 L196.85 690.7 C196.85 679 194.15 671.14 188.69 667.06 C183.29 662.92 173.69 660.88
						 159.83 660.88 L27.48 660.88 ZM240.22 638.44 L277.12 638.44 L369.81 733.05 L369.81 733.05 L462.63 638.44
						 L499.52 638.44 L383.61 756.03 L383.61 841.89 L356.13 841.89 L356.13 756.03 L240.22 638.44 ZM532.76 638.44
						 L560.24 638.44 L560.24 819.45 L717.73 819.45 L717.73 841.89 L532.76 841.89 L532.76 638.44 ZM747.78 638.44
						 L775.26 638.44 L775.26 841.89 L747.78 841.89 L747.78 638.44 Z" class="st4"/>
		</g>
		<g id="shape8-11" v:mID="8" v:groupContext="shape" transform="translate(315.576,-333.617)">
			<title>工作表.8</title>
			<path d="M69.88 743.1 L0 812.99 L28.9 841.89 L98.78 772.01 L69.88 743.1 L69.88 743.1 Z" class="st5"/>
		</g>
	</g>
</svg>
